<?xml version="1.0" encoding="UTF-8" standalone="no"?>
<!DOCTYPE svg PUBLIC "-//W3C//DTD SVG 1.1//EN"
 "http://www.w3.org/Graphics/SVG/1.1/DTD/svg11.dtd">
<!-- Generated by graphviz version 2.49.3 (20211023.0002)
 -->
<!-- Title: finite_state_machine Pages: 1 -->
<svg width="936pt" height="515pt"
 viewBox="0.00 0.00 935.92 514.58" xmlns="http://www.w3.org/2000/svg" xmlns:xlink="http://www.w3.org/1999/xlink">
<g id="graph0" class="graph" transform="scale(1 1) rotate(0) translate(4 510.58)">
<title>finite_state_machine</title>
<polygon fill="white" stroke="transparent" points="-4,4 -4,-510.58 931.92,-510.58 931.92,4 -4,4"/>
<!-- DFAFromNFA: -->
<g id="node1" class="node">
<title>DFAFromNFA:</title>
<text text-anchor="middle" x="48" y="-196.48" font-family="Arial" font-size="12.00">DFAFromNFA:</text>
</g>
<!-- START -->
<g id="node2" class="node">
<title>START</title>
<ellipse fill="#e5e5e5" stroke="black" cx="48" cy="-237.58" rx="1.8" ry="1.8"/>
</g>
<!-- S -->
<g id="node10" class="node">
<title>S</title>
<ellipse fill="#e5e5e5" stroke="black" cx="160" cy="-237.58" rx="27" ry="18"/>
<text text-anchor="middle" x="160" y="-235.08" font-family="Arial" font-size="10.00">S</text>
</g>
<!-- START&#45;&gt;S -->
<g id="edge1" class="edge">
<title>START&#45;&gt;S</title>
<path fill="none" stroke="black" d="M50.24,-237.58C57.36,-237.58 93.9,-237.58 122.69,-237.58"/>
<polygon fill="black" stroke="black" points="122.88,-241.08 132.88,-237.58 122.88,-234.08 122.88,-241.08"/>
</g>
<!-- A+B+C+FIN+S -->
<g id="node3" class="node">
<title>A+B+C+FIN+S</title>
<ellipse fill="#e5e5e5" stroke="black" cx="875.06" cy="-261.58" rx="48.73" ry="18"/>
<ellipse fill="none" stroke="black" cx="875.06" cy="-261.58" rx="52.72" ry="22"/>
<text text-anchor="middle" x="875.06" y="-259.08" font-family="Arial" font-size="10.00">A+B+C+FIN+S</text>
</g>
<!-- A+B+C+FIN+S&#45;&gt;A+B+C+FIN+S -->
<g id="edge36" class="edge">
<title>A+B+C+FIN+S&#45;&gt;A+B+C+FIN+S</title>
<path fill="none" stroke="black" d="M859.62,-282.98C857.94,-292.91 863.09,-301.58 875.06,-301.58 882.55,-301.58 887.37,-298.19 889.51,-293.23"/>
<polygon fill="black" stroke="black" points="893.03,-293.27 890.5,-282.98 886.06,-292.6 893.03,-293.27"/>
<text text-anchor="middle" x="875.06" y="-304.58" font-family="Arial" font-size="10.00">a, b, c</text>
</g>
<!-- A+B+FIN+S -->
<g id="node4" class="node">
<title>A+B+FIN+S</title>
<ellipse fill="#e5e5e5" stroke="black" cx="598" cy="-381.58" rx="41.4" ry="18"/>
<ellipse fill="none" stroke="black" cx="598" cy="-381.58" rx="45.41" ry="22"/>
<text text-anchor="middle" x="598" y="-379.08" font-family="Arial" font-size="10.00">A+B+FIN+S</text>
</g>
<!-- A+B+FIN+S&#45;&gt;A+B+FIN+S -->
<g id="edge30" class="edge">
<title>A+B+FIN+S&#45;&gt;A+B+FIN+S</title>
<path fill="none" stroke="black" d="M585.87,-402.98C584.55,-412.91 588.59,-421.58 598,-421.58 603.88,-421.58 607.67,-418.19 609.36,-413.23"/>
<polygon fill="black" stroke="black" points="612.87,-413.21 610.13,-402.98 605.89,-412.69 612.87,-413.21"/>
<text text-anchor="middle" x="598" y="-424.58" font-family="Arial" font-size="10.00">a, b</text>
</g>
<!-- A+B+C+S -->
<g id="node17" class="node">
<title>A+B+C+S</title>
<ellipse fill="#e5e5e5" stroke="black" cx="721.71" cy="-261.58" rx="36.49" ry="18"/>
<text text-anchor="middle" x="721.71" y="-259.08" font-family="Arial" font-size="10.00">A+B+C+S</text>
</g>
<!-- A+B+FIN+S&#45;&gt;A+B+C+S -->
<g id="edge29" class="edge">
<title>A+B+FIN+S&#45;&gt;A+B+C+S</title>
<path fill="none" stroke="black" d="M632.76,-367.49C644.51,-361.54 657.23,-353.83 667.21,-344.58 684.39,-328.65 698.48,-306.06 707.87,-288.48"/>
<polygon fill="black" stroke="black" points="711.14,-289.79 712.6,-279.29 704.91,-286.58 711.14,-289.79"/>
<text text-anchor="middle" x="664.21" y="-352.58" font-family="Arial" font-size="10.00">c</text>
</g>
<!-- A+C+FIN+S -->
<g id="node5" class="node">
<title>A+C+FIN+S</title>
<ellipse fill="#e5e5e5" stroke="black" cx="598" cy="-196.58" rx="41.4" ry="18"/>
<ellipse fill="none" stroke="black" cx="598" cy="-196.58" rx="45.41" ry="22"/>
<text text-anchor="middle" x="598" y="-194.08" font-family="Arial" font-size="10.00">A+C+FIN+S</text>
</g>
<!-- A+C+FIN+S&#45;&gt;A+C+FIN+S -->
<g id="edge33" class="edge">
<title>A+C+FIN+S&#45;&gt;A+C+FIN+S</title>
<path fill="none" stroke="black" d="M585.87,-217.98C584.55,-227.91 588.59,-236.58 598,-236.58 603.88,-236.58 607.67,-233.19 609.36,-228.23"/>
<polygon fill="black" stroke="black" points="612.87,-228.21 610.13,-217.98 605.89,-227.69 612.87,-228.21"/>
<text text-anchor="middle" x="598" y="-239.58" font-family="Arial" font-size="10.00">a, c</text>
</g>
<!-- A+C+FIN+S&#45;&gt;A+B+C+S -->
<g id="edge32" class="edge">
<title>A+C+FIN+S&#45;&gt;A+B+C+S</title>
<path fill="none" stroke="black" d="M629.09,-212.65C646.71,-222.06 669,-233.97 687.19,-243.68"/>
<polygon fill="black" stroke="black" points="685.81,-246.91 696.28,-248.53 689.1,-240.73 685.81,-246.91"/>
<text text-anchor="middle" x="664.21" y="-236.58" font-family="Arial" font-size="10.00">b</text>
</g>
<!-- A+FIN+S -->
<g id="node6" class="node">
<title>A+FIN+S</title>
<ellipse fill="#e5e5e5" stroke="black" cx="362.55" cy="-422.58" rx="33.6" ry="18"/>
<ellipse fill="none" stroke="black" cx="362.55" cy="-422.58" rx="37.61" ry="22"/>
<text text-anchor="middle" x="362.55" y="-420.08" font-family="Arial" font-size="10.00">A+FIN+S</text>
</g>
<!-- A+FIN+S&#45;&gt;A+FIN+S -->
<g id="edge16" class="edge">
<title>A+FIN+S&#45;&gt;A+FIN+S</title>
<path fill="none" stroke="black" d="M351.89,-443.98C350.73,-453.91 354.28,-462.58 362.55,-462.58 367.72,-462.58 371.05,-459.19 372.53,-454.23"/>
<polygon fill="black" stroke="black" points="376.04,-454.19 373.21,-443.98 369.06,-453.72 376.04,-454.19"/>
<text text-anchor="middle" x="362.55" y="-465.58" font-family="Arial" font-size="10.00">a</text>
</g>
<!-- A+B+S -->
<g id="node14" class="node">
<title>A+B+S</title>
<ellipse fill="#e5e5e5" stroke="black" cx="470.95" cy="-351.58" rx="28.69" ry="18"/>
<text text-anchor="middle" x="470.95" y="-349.08" font-family="Arial" font-size="10.00">A+B+S</text>
</g>
<!-- A+FIN+S&#45;&gt;A+B+S -->
<g id="edge14" class="edge">
<title>A+FIN+S&#45;&gt;A+B+S</title>
<path fill="none" stroke="black" d="M400.34,-423.93C408.59,-422.91 416.99,-420.73 424.11,-416.58 439.13,-407.82 450.47,-391.95 458.11,-378.08"/>
<polygon fill="black" stroke="black" points="461.36,-379.41 462.81,-368.92 455.13,-376.22 461.36,-379.41"/>
<text text-anchor="middle" x="421.11" y="-422.58" font-family="Arial" font-size="10.00">b</text>
</g>
<!-- A+C+S -->
<g id="node15" class="node">
<title>A+C+S</title>
<ellipse fill="#e5e5e5" stroke="black" cx="470.95" cy="-228.58" rx="28.69" ry="18"/>
<text text-anchor="middle" x="470.95" y="-226.08" font-family="Arial" font-size="10.00">A+C+S</text>
</g>
<!-- A+FIN+S&#45;&gt;A+C+S -->
<g id="edge15" class="edge">
<title>A+FIN+S&#45;&gt;A+C+S</title>
<path fill="none" stroke="black" d="M392.43,-409.07C403.73,-402.5 415.93,-393.61 424.11,-382.58 426.04,-379.97 449.39,-299.79 461.99,-256.18"/>
<polygon fill="black" stroke="black" points="465.39,-257.04 464.8,-246.46 458.66,-255.1 465.39,-257.04"/>
<text text-anchor="middle" x="421.11" y="-391.58" font-family="Arial" font-size="10.00">c</text>
</g>
<!-- B+C+FIN+S -->
<g id="node7" class="node">
<title>B+C+FIN+S</title>
<ellipse fill="#e5e5e5" stroke="black" cx="598" cy="-105.58" rx="41.4" ry="18"/>
<ellipse fill="none" stroke="black" cx="598" cy="-105.58" rx="45.41" ry="22"/>
<text text-anchor="middle" x="598" y="-103.08" font-family="Arial" font-size="10.00">B+C+FIN+S</text>
</g>
<!-- B+C+FIN+S&#45;&gt;B+C+FIN+S -->
<g id="edge35" class="edge">
<title>B+C+FIN+S&#45;&gt;B+C+FIN+S</title>
<path fill="none" stroke="black" d="M585.87,-126.98C584.55,-136.91 588.59,-145.58 598,-145.58 603.88,-145.58 607.67,-142.19 609.36,-137.23"/>
<polygon fill="black" stroke="black" points="612.87,-137.21 610.13,-126.98 605.89,-136.69 612.87,-137.21"/>
<text text-anchor="middle" x="598" y="-148.58" font-family="Arial" font-size="10.00">b, c</text>
</g>
<!-- B+C+FIN+S&#45;&gt;A+B+C+S -->
<g id="edge34" class="edge">
<title>B+C+FIN+S&#45;&gt;A+B+C+S</title>
<path fill="none" stroke="black" d="M615.16,-126.29C637.39,-154.78 677.33,-205.98 701.19,-236.57"/>
<polygon fill="black" stroke="black" points="698.56,-238.88 707.47,-244.61 704.08,-234.57 698.56,-238.88"/>
<text text-anchor="middle" x="664.21" y="-196.58" font-family="Arial" font-size="10.00">a</text>
</g>
<!-- B+FIN+S -->
<g id="node8" class="node">
<title>B+FIN+S</title>
<ellipse fill="#e5e5e5" stroke="black" cx="362.55" cy="-237.58" rx="33.6" ry="18"/>
<ellipse fill="none" stroke="black" cx="362.55" cy="-237.58" rx="37.61" ry="22"/>
<text text-anchor="middle" x="362.55" y="-235.08" font-family="Arial" font-size="10.00">B+FIN+S</text>
</g>
<!-- B+FIN+S&#45;&gt;B+FIN+S -->
<g id="edge23" class="edge">
<title>B+FIN+S&#45;&gt;B+FIN+S</title>
<path fill="none" stroke="black" d="M351.89,-258.98C350.73,-268.91 354.28,-277.58 362.55,-277.58 367.72,-277.58 371.05,-274.19 372.53,-269.23"/>
<polygon fill="black" stroke="black" points="376.04,-269.19 373.21,-258.98 369.06,-268.72 376.04,-269.19"/>
<text text-anchor="middle" x="362.55" y="-280.58" font-family="Arial" font-size="10.00">b</text>
</g>
<!-- B+FIN+S&#45;&gt;A+B+S -->
<g id="edge21" class="edge">
<title>B+FIN+S&#45;&gt;A+B+S</title>
<path fill="none" stroke="black" d="M382.36,-256.33C394.44,-268.51 410.39,-284.8 424.11,-299.58 432.72,-308.86 441.99,-319.29 449.93,-328.36"/>
<polygon fill="black" stroke="black" points="447.31,-330.68 456.52,-335.92 452.59,-326.08 447.31,-330.68"/>
<text text-anchor="middle" x="421.11" y="-302.58" font-family="Arial" font-size="10.00">a</text>
</g>
<!-- B+C+S -->
<g id="node16" class="node">
<title>B+C+S</title>
<ellipse fill="#e5e5e5" stroke="black" cx="470.95" cy="-56.58" rx="28.69" ry="18"/>
<text text-anchor="middle" x="470.95" y="-54.08" font-family="Arial" font-size="10.00">B+C+S</text>
</g>
<!-- B+FIN+S&#45;&gt;B+C+S -->
<g id="edge22" class="edge">
<title>B+FIN+S&#45;&gt;B+C+S</title>
<path fill="none" stroke="black" d="M384.61,-219.28C390.06,-213.92 395.65,-207.81 400.11,-201.58 427.13,-163.81 448.5,-113.96 460.18,-83.64"/>
<polygon fill="black" stroke="black" points="463.5,-84.74 463.76,-74.15 456.95,-82.27 463.5,-84.74"/>
<text text-anchor="middle" x="421.11" y="-175.58" font-family="Arial" font-size="10.00">c</text>
</g>
<!-- C+FIN+S -->
<g id="node9" class="node">
<title>C+FIN+S</title>
<ellipse fill="#e5e5e5" stroke="black" cx="362.55" cy="-52.58" rx="33.6" ry="18"/>
<ellipse fill="none" stroke="black" cx="362.55" cy="-52.58" rx="37.61" ry="22"/>
<text text-anchor="middle" x="362.55" y="-50.08" font-family="Arial" font-size="10.00">C+FIN+S</text>
</g>
<!-- C+FIN+S&#45;&gt;C+FIN+S -->
<g id="edge28" class="edge">
<title>C+FIN+S&#45;&gt;C+FIN+S</title>
<path fill="none" stroke="black" d="M351.89,-73.98C350.73,-83.91 354.28,-92.58 362.55,-92.58 367.72,-92.58 371.05,-89.19 372.53,-84.23"/>
<polygon fill="black" stroke="black" points="376.04,-84.19 373.21,-73.98 369.06,-83.72 376.04,-84.19"/>
<text text-anchor="middle" x="362.55" y="-95.58" font-family="Arial" font-size="10.00">c</text>
</g>
<!-- C+FIN+S&#45;&gt;A+C+S -->
<g id="edge26" class="edge">
<title>C+FIN+S&#45;&gt;A+C+S</title>
<path fill="none" stroke="black" d="M378.78,-72.81C391.53,-90.12 409.87,-115.93 424.11,-139.58 436.36,-159.93 448.6,-183.92 457.34,-201.87"/>
<polygon fill="black" stroke="black" points="454.32,-203.66 461.82,-211.15 460.63,-200.62 454.32,-203.66"/>
<text text-anchor="middle" x="421.11" y="-142.58" font-family="Arial" font-size="10.00">a</text>
</g>
<!-- C+FIN+S&#45;&gt;B+C+S -->
<g id="edge27" class="edge">
<title>C+FIN+S&#45;&gt;B+C+S</title>
<path fill="none" stroke="black" d="M400.17,-53.96C410.45,-54.34 421.65,-54.76 432,-55.15"/>
<polygon fill="black" stroke="black" points="431.89,-58.65 442.01,-55.53 432.15,-51.65 431.89,-58.65"/>
<text text-anchor="middle" x="421.11" y="-58.58" font-family="Arial" font-size="10.00">b</text>
</g>
<!-- A+S -->
<g id="node11" class="node">
<title>A+S</title>
<ellipse fill="#e5e5e5" stroke="black" cx="256" cy="-392.58" rx="27" ry="18"/>
<text text-anchor="middle" x="256" y="-390.08" font-family="Arial" font-size="10.00">A+S</text>
</g>
<!-- S&#45;&gt;A+S -->
<g id="edge2" class="edge">
<title>S&#45;&gt;A+S</title>
<path fill="none" stroke="black" d="M171.06,-254.17C187.53,-281.32 220.34,-335.42 239.7,-367.35"/>
<polygon fill="black" stroke="black" points="236.83,-369.37 245.01,-376.11 242.82,-365.74 236.83,-369.37"/>
<text text-anchor="middle" x="208" y="-323.58" font-family="Arial" font-size="10.00">a</text>
</g>
<!-- B+S -->
<g id="node12" class="node">
<title>B+S</title>
<ellipse fill="#e5e5e5" stroke="black" cx="256" cy="-237.58" rx="27" ry="18"/>
<text text-anchor="middle" x="256" y="-235.08" font-family="Arial" font-size="10.00">B+S</text>
</g>
<!-- S&#45;&gt;B+S -->
<g id="edge3" class="edge">
<title>S&#45;&gt;B+S</title>
<path fill="none" stroke="black" d="M187.18,-237.58C196.96,-237.58 208.25,-237.58 218.77,-237.58"/>
<polygon fill="black" stroke="black" points="218.96,-241.08 228.96,-237.58 218.96,-234.08 218.96,-241.08"/>
<text text-anchor="middle" x="208" y="-240.58" font-family="Arial" font-size="10.00">b</text>
</g>
<!-- C+S -->
<g id="node13" class="node">
<title>C+S</title>
<ellipse fill="#e5e5e5" stroke="black" cx="256" cy="-141.58" rx="27" ry="18"/>
<text text-anchor="middle" x="256" y="-139.08" font-family="Arial" font-size="10.00">C+S</text>
</g>
<!-- S&#45;&gt;C+S -->
<g id="edge4" class="edge">
<title>S&#45;&gt;C+S</title>
<path fill="none" stroke="black" d="M175.69,-222.58C191.14,-206.8 215.62,-181.79 233.3,-163.74"/>
<polygon fill="black" stroke="black" points="235.92,-166.07 240.42,-156.47 230.92,-161.17 235.92,-166.07"/>
<text text-anchor="middle" x="208" y="-195.58" font-family="Arial" font-size="10.00">c</text>
</g>
<!-- A+S&#45;&gt;A+FIN+S -->
<g id="edge7" class="edge">
<title>A+S&#45;&gt;A+FIN+S</title>
<path fill="none" stroke="black" d="M280.99,-399.46C292.23,-402.69 305.97,-406.63 318.9,-410.34"/>
<polygon fill="black" stroke="black" points="317.99,-413.72 328.57,-413.11 319.92,-406.99 317.99,-413.72"/>
<text text-anchor="middle" x="304" y="-410.58" font-family="Arial" font-size="10.00">a</text>
</g>
<!-- A+S&#45;&gt;A+B+S -->
<g id="edge5" class="edge">
<title>A+S&#45;&gt;A+B+S</title>
<path fill="none" stroke="black" d="M264.24,-410.06C274.28,-431.69 294.67,-467.48 325,-482.58 354.88,-497.45 371.48,-499.75 400.11,-482.58 437.24,-460.3 455.71,-410.84 464.03,-379.47"/>
<polygon fill="black" stroke="black" points="467.47,-380.14 466.47,-369.59 460.67,-378.46 467.47,-380.14"/>
<text text-anchor="middle" x="362.55" y="-498.58" font-family="Arial" font-size="10.00">b</text>
</g>
<!-- A+S&#45;&gt;A+C+S -->
<g id="edge6" class="edge">
<title>A+S&#45;&gt;A+C+S</title>
<path fill="none" stroke="black" d="M282.64,-389.16C313.03,-384.09 364.08,-372.25 400.11,-346.58 431.39,-324.28 450.99,-283.2 461.2,-255.88"/>
<polygon fill="black" stroke="black" points="464.61,-256.75 464.66,-246.15 458.01,-254.4 464.61,-256.75"/>
<text text-anchor="middle" x="362.55" y="-382.58" font-family="Arial" font-size="10.00">c</text>
</g>
<!-- B+S&#45;&gt;B+FIN+S -->
<g id="edge10" class="edge">
<title>B+S&#45;&gt;B+FIN+S</title>
<path fill="none" stroke="black" d="M283.11,-237.58C292.65,-237.58 303.75,-237.58 314.54,-237.58"/>
<polygon fill="black" stroke="black" points="314.74,-241.08 324.74,-237.58 314.74,-234.08 314.74,-241.08"/>
<text text-anchor="middle" x="304" y="-240.58" font-family="Arial" font-size="10.00">b</text>
</g>
<!-- B+S&#45;&gt;A+B+S -->
<g id="edge8" class="edge">
<title>B+S&#45;&gt;A+B+S</title>
<path fill="none" stroke="black" d="M270.88,-252.63C283.82,-265.94 304.2,-285.12 325,-297.58 359.77,-318.41 403.93,-333.45 434.32,-342.28"/>
<polygon fill="black" stroke="black" points="433.49,-345.69 444.06,-345.04 435.39,-338.95 433.49,-345.69"/>
<text text-anchor="middle" x="362.55" y="-334.58" font-family="Arial" font-size="10.00">a</text>
</g>
<!-- B+S&#45;&gt;B+C+S -->
<g id="edge9" class="edge">
<title>B+S&#45;&gt;B+C+S</title>
<path fill="none" stroke="black" d="M266.17,-220.53C277.47,-201.17 298.46,-170 325,-152.58 363.16,-127.52 387.09,-152.3 424.11,-125.58 439.03,-114.81 450.49,-97.56 458.22,-83.01"/>
<polygon fill="black" stroke="black" points="461.42,-84.44 462.76,-73.93 455.16,-81.31 461.42,-84.44"/>
<text text-anchor="middle" x="362.55" y="-155.58" font-family="Arial" font-size="10.00">c</text>
</g>
<!-- C+S&#45;&gt;C+FIN+S -->
<g id="edge13" class="edge">
<title>C+S&#45;&gt;C+FIN+S</title>
<path fill="none" stroke="black" d="M273.34,-127.67C289.12,-114.24 313.36,-93.6 332.45,-77.36"/>
<polygon fill="black" stroke="black" points="334.92,-79.84 340.27,-70.7 330.39,-74.51 334.92,-79.84"/>
<text text-anchor="middle" x="304" y="-105.58" font-family="Arial" font-size="10.00">c</text>
</g>
<!-- C+S&#45;&gt;A+C+S -->
<g id="edge11" class="edge">
<title>C+S&#45;&gt;A+C+S</title>
<path fill="none" stroke="black" d="M280.28,-149.71C308.79,-159.82 358.42,-177.9 400.11,-195.58 412.87,-200.99 426.71,-207.41 438.68,-213.15"/>
<polygon fill="black" stroke="black" points="437.3,-216.36 447.83,-217.56 440.35,-210.06 437.3,-216.36"/>
<text text-anchor="middle" x="362.55" y="-198.58" font-family="Arial" font-size="10.00">a</text>
</g>
<!-- C+S&#45;&gt;B+C+S -->
<g id="edge12" class="edge">
<title>C+S&#45;&gt;B+C+S</title>
<path fill="none" stroke="black" d="M260.23,-123.58C266.64,-93.89 284.05,-35.46 325,-10.58 353.53,6.76 368.13,-0.99 400.11,-10.58 416.72,-15.56 433.03,-25.9 445.71,-35.52"/>
<polygon fill="black" stroke="black" points="443.86,-38.52 453.87,-41.99 448.21,-33.04 443.86,-38.52"/>
<text text-anchor="middle" x="362.55" y="-13.58" font-family="Arial" font-size="10.00">b</text>
</g>
<!-- A+B+S&#45;&gt;A+B+FIN+S -->
<g id="edge18" class="edge">
<title>A+B+S&#45;&gt;A+B+FIN+S</title>
<path fill="none" stroke="black" d="M498.17,-357.87C512.28,-361.25 530.18,-365.55 546.85,-369.55"/>
<polygon fill="black" stroke="black" points="546.49,-373.06 557.03,-371.99 548.12,-366.25 546.49,-373.06"/>
<text text-anchor="middle" x="526.3" y="-369.58" font-family="Arial" font-size="10.00">a, b</text>
</g>
<!-- A+B+S&#45;&gt;A+B+C+S -->
<g id="edge17" class="edge">
<title>A+B+S&#45;&gt;A+B+C+S</title>
<path fill="none" stroke="black" d="M496.26,-342.79C539.56,-327.12 630.35,-294.27 682.22,-275.5"/>
<polygon fill="black" stroke="black" points="683.52,-278.75 691.73,-272.06 681.14,-272.17 683.52,-278.75"/>
<text text-anchor="middle" x="598" y="-324.58" font-family="Arial" font-size="10.00">c</text>
</g>
<!-- A+C+S&#45;&gt;A+C+FIN+S -->
<g id="edge20" class="edge">
<title>A+C+S&#45;&gt;A+C+FIN+S</title>
<path fill="none" stroke="black" d="M497.86,-221.95C512.22,-218.28 530.54,-213.59 547.52,-209.24"/>
<polygon fill="black" stroke="black" points="548.51,-212.6 557.33,-206.73 546.77,-205.82 548.51,-212.6"/>
<text text-anchor="middle" x="526.3" y="-219.58" font-family="Arial" font-size="10.00">a, c</text>
</g>
<!-- A+C+S&#45;&gt;A+B+C+S -->
<g id="edge19" class="edge">
<title>A+C+S&#45;&gt;A+B+C+S</title>
<path fill="none" stroke="black" d="M495.14,-238.72C511.04,-245.14 532.78,-252.9 552.8,-256.58 593.74,-264.1 641.22,-264.79 675.23,-263.92"/>
<polygon fill="black" stroke="black" points="675.44,-267.42 685.33,-263.61 675.22,-260.42 675.44,-267.42"/>
<text text-anchor="middle" x="598" y="-267.58" font-family="Arial" font-size="10.00">b</text>
</g>
<!-- B+C+S&#45;&gt;B+C+FIN+S -->
<g id="edge25" class="edge">
<title>B+C+S&#45;&gt;B+C+FIN+S</title>
<path fill="none" stroke="black" d="M495.77,-65.91C511.77,-72.18 533.35,-80.64 552.48,-88.13"/>
<polygon fill="black" stroke="black" points="551.34,-91.44 561.93,-91.83 553.89,-84.93 551.34,-91.44"/>
<text text-anchor="middle" x="526.3" y="-84.58" font-family="Arial" font-size="10.00">b, c</text>
</g>
<!-- B+C+S&#45;&gt;A+B+C+S -->
<g id="edge24" class="edge">
<title>B+C+S&#45;&gt;A+B+C+S</title>
<path fill="none" stroke="black" d="M497.64,-49.64C533.76,-41.51 599.96,-32.75 643.21,-63.58 698.75,-103.17 714.49,-188.75 718.95,-233.31"/>
<polygon fill="black" stroke="black" points="715.47,-233.8 719.83,-243.45 722.45,-233.18 715.47,-233.8"/>
<text text-anchor="middle" x="598" y="-66.58" font-family="Arial" font-size="10.00">a</text>
</g>
<!-- A+B+C+S&#45;&gt;A+B+C+FIN+S -->
<g id="edge31" class="edge">
<title>A+B+C+S&#45;&gt;A+B+C+FIN+S</title>
<path fill="none" stroke="black" d="M758.58,-261.58C774.51,-261.58 793.73,-261.58 811.88,-261.58"/>
<polygon fill="black" stroke="black" points="812.12,-265.08 822.12,-261.58 812.12,-258.08 812.12,-265.08"/>
<text text-anchor="middle" x="790.2" y="-264.58" font-family="Arial" font-size="10.00">a, b, c</text>
</g>
</g>
</svg>
