<?xml version="1.0" encoding="UTF-8" standalone="no"?>
<!DOCTYPE svg PUBLIC "-//W3C//DTD SVG 1.1//EN"
 "http://www.w3.org/Graphics/SVG/1.1/DTD/svg11.dtd">
<!-- Generated by graphviz version 2.49.3 (20211023.0002)
 -->
<!-- Title: finite_state_machine Pages: 1 -->
<svg width="614pt" height="122pt"
 viewBox="0.00 0.00 614.00 122.00" xmlns="http://www.w3.org/2000/svg" xmlns:xlink="http://www.w3.org/1999/xlink">
<g id="graph0" class="graph" transform="scale(1 1) rotate(0) translate(4 118)">
<title>finite_state_machine</title>
<polygon fill="white" stroke="transparent" points="-4,4 -4,-118 610,-118 610,4 -4,4"/>
<!-- faOfGrammar: -->
<g id="node1" class="node">
<title>faOfGrammar:</title>
<text text-anchor="middle" x="45.5" y="-14.9" font-family="Arial" font-size="12.00">faOfGrammar:</text>
</g>
<!-- START -->
<g id="node2" class="node">
<title>START</title>
<ellipse fill="#e5e5e5" stroke="black" cx="45.5" cy="-56" rx="1.8" ry="1.8"/>
</g>
<!-- S -->
<g id="node4" class="node">
<title>S</title>
<ellipse fill="#e5e5e5" stroke="black" cx="159" cy="-56" rx="27" ry="18"/>
<ellipse fill="none" stroke="black" cx="159" cy="-56" rx="31" ry="22"/>
<text text-anchor="middle" x="159" y="-53.5" font-family="Arial" font-size="10.00">S</text>
</g>
<!-- START&#45;&gt;S -->
<g id="edge1" class="edge">
<title>START&#45;&gt;S</title>
<path fill="none" stroke="black" d="M47.75,-56C54.68,-56 89.01,-56 117.54,-56"/>
<polygon fill="black" stroke="black" points="117.73,-59.5 127.73,-56 117.73,-52.5 117.73,-59.5"/>
</g>
<!-- FIN -->
<g id="node3" class="node">
<title>FIN</title>
<ellipse fill="#e5e5e5" stroke="black" cx="575" cy="-92" rx="27" ry="18"/>
<ellipse fill="none" stroke="black" cx="575" cy="-92" rx="31" ry="22"/>
<text text-anchor="middle" x="575" y="-89.5" font-family="Arial" font-size="10.00">FIN</text>
</g>
<!-- A -->
<g id="node5" class="node">
<title>A</title>
<ellipse fill="#e5e5e5" stroke="black" cx="250" cy="-56" rx="18" ry="18"/>
<text text-anchor="middle" x="250" y="-53.5" font-family="Arial" font-size="10.00">A</text>
</g>
<!-- S&#45;&gt;A -->
<g id="edge2" class="edge">
<title>S&#45;&gt;A</title>
<path fill="none" stroke="black" d="M190.13,-56C200.35,-56 211.71,-56 221.7,-56"/>
<polygon fill="black" stroke="black" points="221.88,-59.5 231.88,-56 221.88,-52.5 221.88,-59.5"/>
<text text-anchor="middle" x="211" y="-59" font-family="Arial" font-size="10.00">a</text>
</g>
<!-- A&#45;&gt;A -->
<g id="edge3" class="edge">
<title>A&#45;&gt;A</title>
<path fill="none" stroke="black" d="M243.27,-73.04C241.89,-82.86 244.14,-92 250,-92 253.66,-92 255.92,-88.43 256.75,-83.35"/>
<polygon fill="black" stroke="black" points="260.25,-83.03 256.73,-73.04 253.25,-83.04 260.25,-83.03"/>
<text text-anchor="middle" x="250" y="-95" font-family="Arial" font-size="10.00">a</text>
</g>
<!-- B -->
<g id="node6" class="node">
<title>B</title>
<ellipse fill="#e5e5e5" stroke="black" cx="328" cy="-87" rx="18" ry="18"/>
<text text-anchor="middle" x="328" y="-84.5" font-family="Arial" font-size="10.00">B</text>
</g>
<!-- A&#45;&gt;B -->
<g id="edge4" class="edge">
<title>A&#45;&gt;B</title>
<path fill="none" stroke="black" d="M267.12,-62.57C277.16,-66.67 290.3,-72.03 301.71,-76.68"/>
<polygon fill="black" stroke="black" points="300.58,-80.01 311.17,-80.54 303.23,-73.52 300.58,-80.01"/>
<text text-anchor="middle" x="289" y="-75" font-family="Arial" font-size="10.00">a</text>
</g>
<!-- B&#45;&gt;FIN -->
<g id="edge6" class="edge">
<title>B&#45;&gt;FIN</title>
<path fill="none" stroke="black" d="M345.71,-90.24C357.48,-92.35 373.64,-94.91 388,-96 438.19,-99.81 496.21,-97.5 533.92,-95.11"/>
<polygon fill="black" stroke="black" points="534.25,-98.59 543.99,-94.43 533.78,-91.61 534.25,-98.59"/>
<text text-anchor="middle" x="445" y="-101" font-family="Arial" font-size="10.00">b</text>
</g>
<!-- C -->
<g id="node7" class="node">
<title>C</title>
<ellipse fill="#e5e5e5" stroke="black" cx="406" cy="-40" rx="18" ry="18"/>
<text text-anchor="middle" x="406" y="-37.5" font-family="Arial" font-size="10.00">C</text>
</g>
<!-- B&#45;&gt;C -->
<g id="edge5" class="edge">
<title>B&#45;&gt;C</title>
<path fill="none" stroke="black" d="M343.65,-77.94C354.48,-71.24 369.44,-61.99 381.88,-54.3"/>
<polygon fill="black" stroke="black" points="383.73,-57.27 390.39,-49.03 380.05,-51.32 383.73,-57.27"/>
<text text-anchor="middle" x="367" y="-68" font-family="Arial" font-size="10.00">a</text>
</g>
<!-- C&#45;&gt;A -->
<g id="edge7" class="edge">
<title>C&#45;&gt;A</title>
<path fill="none" stroke="black" d="M387.83,-41.5C368.79,-43.2 337.18,-46.1 310,-49 299.61,-50.11 288.19,-51.44 278.2,-52.64"/>
<polygon fill="black" stroke="black" points="277.53,-49.19 268.03,-53.87 278.38,-56.14 277.53,-49.19"/>
<text text-anchor="middle" x="328" y="-52" font-family="Arial" font-size="10.00">a</text>
</g>
<!-- C&#45;&gt;C -->
<g id="edge8" class="edge">
<title>C&#45;&gt;C</title>
<path fill="none" stroke="black" d="M399.27,-57.04C397.89,-66.86 400.14,-76 406,-76 409.66,-76 411.92,-72.43 412.75,-67.35"/>
<polygon fill="black" stroke="black" points="416.25,-67.03 412.73,-57.04 409.25,-67.04 416.25,-67.03"/>
<text text-anchor="middle" x="406" y="-79" font-family="Arial" font-size="10.00">c</text>
</g>
<!-- D -->
<g id="node8" class="node">
<title>D</title>
<ellipse fill="#e5e5e5" stroke="black" cx="484" cy="-62" rx="18" ry="18"/>
<text text-anchor="middle" x="484" y="-59.5" font-family="Arial" font-size="10.00">D</text>
</g>
<!-- C&#45;&gt;D -->
<g id="edge9" class="edge">
<title>C&#45;&gt;D</title>
<path fill="none" stroke="black" d="M423.49,-44.77C433.25,-47.6 445.83,-51.24 456.91,-54.45"/>
<polygon fill="black" stroke="black" points="455.96,-57.82 466.54,-57.24 457.91,-51.09 455.96,-57.82"/>
<text text-anchor="middle" x="445" y="-55" font-family="Arial" font-size="10.00">c</text>
</g>
<!-- D&#45;&gt;FIN -->
<g id="edge10" class="edge">
<title>D&#45;&gt;FIN</title>
<path fill="none" stroke="black" d="M501.32,-67.5C511.3,-70.87 524.49,-75.31 536.89,-79.49"/>
<polygon fill="black" stroke="black" points="536,-82.88 546.59,-82.76 538.24,-76.25 536,-82.88"/>
<text text-anchor="middle" x="523" y="-78" font-family="Arial" font-size="10.00">d</text>
</g>
</g>
</svg>
