<?xml version="1.0" encoding="UTF-8" standalone="no"?>
<!DOCTYPE svg PUBLIC "-//W3C//DTD SVG 1.1//EN"
 "http://www.w3.org/Graphics/SVG/1.1/DTD/svg11.dtd">
<!-- Generated by graphviz version 2.49.3 (20211023.0002)
 -->
<!-- Title: finite_state_machine Pages: 1 -->
<svg width="961pt" height="515pt"
 viewBox="0.00 0.00 960.92 514.58" xmlns="http://www.w3.org/2000/svg" xmlns:xlink="http://www.w3.org/1999/xlink">
<g id="graph0" class="graph" transform="scale(1 1) rotate(0) translate(4 510.58)">
<title>finite_state_machine</title>
<polygon fill="white" stroke="transparent" points="-4,4 -4,-510.58 956.92,-510.58 956.92,4 -4,4"/>
<!-- MinimalDFAOfNFA: -->
<g id="node1" class="node">
<title>MinimalDFAOfNFA:</title>
<text text-anchor="middle" x="60.5" y="-196.48" font-family="Arial" font-size="12.00">MinimalDFAOfNFA:</text>
</g>
<!-- START -->
<g id="node2" class="node">
<title>START</title>
<ellipse fill="#e5e5e5" stroke="black" cx="60.5" cy="-237.58" rx="1.8" ry="1.8"/>
</g>
<!-- S -->
<g id="node10" class="node">
<title>S</title>
<ellipse fill="#e5e5e5" stroke="black" cx="185" cy="-237.58" rx="27" ry="18"/>
<text text-anchor="middle" x="185" y="-235.08" font-family="Arial" font-size="10.00">S</text>
</g>
<!-- START&#45;&gt;S -->
<g id="edge1" class="edge">
<title>START&#45;&gt;S</title>
<path fill="none" stroke="black" d="M62.88,-237.58C71.15,-237.58 115.07,-237.58 147.66,-237.58"/>
<polygon fill="black" stroke="black" points="147.78,-241.08 157.78,-237.58 147.78,-234.08 147.78,-241.08"/>
</g>
<!-- A+B+C+FIN+S -->
<g id="node3" class="node">
<title>A+B+C+FIN+S</title>
<ellipse fill="#e5e5e5" stroke="black" cx="900.06" cy="-261.58" rx="48.73" ry="18"/>
<ellipse fill="none" stroke="black" cx="900.06" cy="-261.58" rx="52.72" ry="22"/>
<text text-anchor="middle" x="900.06" y="-259.08" font-family="Arial" font-size="10.00">A+B+C+FIN+S</text>
</g>
<!-- A+B+C+FIN+S&#45;&gt;A+B+C+FIN+S -->
<g id="edge36" class="edge">
<title>A+B+C+FIN+S&#45;&gt;A+B+C+FIN+S</title>
<path fill="none" stroke="black" d="M884.62,-282.98C882.94,-292.91 888.09,-301.58 900.06,-301.58 907.55,-301.58 912.37,-298.19 914.51,-293.23"/>
<polygon fill="black" stroke="black" points="918.03,-293.27 915.5,-282.98 911.06,-292.6 918.03,-293.27"/>
<text text-anchor="middle" x="900.06" y="-304.58" font-family="Arial" font-size="10.00">a, b, c</text>
</g>
<!-- A+B+FIN+S -->
<g id="node4" class="node">
<title>A+B+FIN+S</title>
<ellipse fill="#e5e5e5" stroke="black" cx="623" cy="-381.58" rx="41.4" ry="18"/>
<ellipse fill="none" stroke="black" cx="623" cy="-381.58" rx="45.41" ry="22"/>
<text text-anchor="middle" x="623" y="-379.08" font-family="Arial" font-size="10.00">A+B+FIN+S</text>
</g>
<!-- A+B+FIN+S&#45;&gt;A+B+FIN+S -->
<g id="edge30" class="edge">
<title>A+B+FIN+S&#45;&gt;A+B+FIN+S</title>
<path fill="none" stroke="black" d="M610.87,-402.98C609.55,-412.91 613.59,-421.58 623,-421.58 628.88,-421.58 632.67,-418.19 634.36,-413.23"/>
<polygon fill="black" stroke="black" points="637.87,-413.21 635.13,-402.98 630.89,-412.69 637.87,-413.21"/>
<text text-anchor="middle" x="623" y="-424.58" font-family="Arial" font-size="10.00">a, b</text>
</g>
<!-- A+B+C+S -->
<g id="node17" class="node">
<title>A+B+C+S</title>
<ellipse fill="#e5e5e5" stroke="black" cx="746.71" cy="-261.58" rx="36.49" ry="18"/>
<text text-anchor="middle" x="746.71" y="-259.08" font-family="Arial" font-size="10.00">A+B+C+S</text>
</g>
<!-- A+B+FIN+S&#45;&gt;A+B+C+S -->
<g id="edge29" class="edge">
<title>A+B+FIN+S&#45;&gt;A+B+C+S</title>
<path fill="none" stroke="black" d="M657.76,-367.49C669.51,-361.54 682.23,-353.83 692.21,-344.58 709.39,-328.65 723.48,-306.06 732.87,-288.48"/>
<polygon fill="black" stroke="black" points="736.14,-289.79 737.6,-279.29 729.91,-286.58 736.14,-289.79"/>
<text text-anchor="middle" x="689.21" y="-352.58" font-family="Arial" font-size="10.00">c</text>
</g>
<!-- A+C+FIN+S -->
<g id="node5" class="node">
<title>A+C+FIN+S</title>
<ellipse fill="#e5e5e5" stroke="black" cx="623" cy="-196.58" rx="41.4" ry="18"/>
<ellipse fill="none" stroke="black" cx="623" cy="-196.58" rx="45.41" ry="22"/>
<text text-anchor="middle" x="623" y="-194.08" font-family="Arial" font-size="10.00">A+C+FIN+S</text>
</g>
<!-- A+C+FIN+S&#45;&gt;A+C+FIN+S -->
<g id="edge33" class="edge">
<title>A+C+FIN+S&#45;&gt;A+C+FIN+S</title>
<path fill="none" stroke="black" d="M610.87,-217.98C609.55,-227.91 613.59,-236.58 623,-236.58 628.88,-236.58 632.67,-233.19 634.36,-228.23"/>
<polygon fill="black" stroke="black" points="637.87,-228.21 635.13,-217.98 630.89,-227.69 637.87,-228.21"/>
<text text-anchor="middle" x="623" y="-239.58" font-family="Arial" font-size="10.00">a, c</text>
</g>
<!-- A+C+FIN+S&#45;&gt;A+B+C+S -->
<g id="edge32" class="edge">
<title>A+C+FIN+S&#45;&gt;A+B+C+S</title>
<path fill="none" stroke="black" d="M654.09,-212.65C671.71,-222.06 694,-233.97 712.19,-243.68"/>
<polygon fill="black" stroke="black" points="710.81,-246.91 721.28,-248.53 714.1,-240.73 710.81,-246.91"/>
<text text-anchor="middle" x="689.21" y="-236.58" font-family="Arial" font-size="10.00">b</text>
</g>
<!-- A+FIN+S -->
<g id="node6" class="node">
<title>A+FIN+S</title>
<ellipse fill="#e5e5e5" stroke="black" cx="387.55" cy="-422.58" rx="33.6" ry="18"/>
<ellipse fill="none" stroke="black" cx="387.55" cy="-422.58" rx="37.61" ry="22"/>
<text text-anchor="middle" x="387.55" y="-420.08" font-family="Arial" font-size="10.00">A+FIN+S</text>
</g>
<!-- A+FIN+S&#45;&gt;A+FIN+S -->
<g id="edge16" class="edge">
<title>A+FIN+S&#45;&gt;A+FIN+S</title>
<path fill="none" stroke="black" d="M376.89,-443.98C375.73,-453.91 379.28,-462.58 387.55,-462.58 392.72,-462.58 396.05,-459.19 397.53,-454.23"/>
<polygon fill="black" stroke="black" points="401.04,-454.19 398.21,-443.98 394.06,-453.72 401.04,-454.19"/>
<text text-anchor="middle" x="387.55" y="-465.58" font-family="Arial" font-size="10.00">a</text>
</g>
<!-- A+B+S -->
<g id="node14" class="node">
<title>A+B+S</title>
<ellipse fill="#e5e5e5" stroke="black" cx="495.95" cy="-351.58" rx="28.69" ry="18"/>
<text text-anchor="middle" x="495.95" y="-349.08" font-family="Arial" font-size="10.00">A+B+S</text>
</g>
<!-- A+FIN+S&#45;&gt;A+B+S -->
<g id="edge14" class="edge">
<title>A+FIN+S&#45;&gt;A+B+S</title>
<path fill="none" stroke="black" d="M425.34,-423.93C433.59,-422.91 441.99,-420.73 449.11,-416.58 464.13,-407.82 475.47,-391.95 483.11,-378.08"/>
<polygon fill="black" stroke="black" points="486.36,-379.41 487.81,-368.92 480.13,-376.22 486.36,-379.41"/>
<text text-anchor="middle" x="446.11" y="-422.58" font-family="Arial" font-size="10.00">b</text>
</g>
<!-- A+C+S -->
<g id="node15" class="node">
<title>A+C+S</title>
<ellipse fill="#e5e5e5" stroke="black" cx="495.95" cy="-228.58" rx="28.69" ry="18"/>
<text text-anchor="middle" x="495.95" y="-226.08" font-family="Arial" font-size="10.00">A+C+S</text>
</g>
<!-- A+FIN+S&#45;&gt;A+C+S -->
<g id="edge15" class="edge">
<title>A+FIN+S&#45;&gt;A+C+S</title>
<path fill="none" stroke="black" d="M417.43,-409.07C428.73,-402.5 440.93,-393.61 449.11,-382.58 451.04,-379.97 474.39,-299.79 486.99,-256.18"/>
<polygon fill="black" stroke="black" points="490.39,-257.04 489.8,-246.46 483.66,-255.1 490.39,-257.04"/>
<text text-anchor="middle" x="446.11" y="-391.58" font-family="Arial" font-size="10.00">c</text>
</g>
<!-- B+C+FIN+S -->
<g id="node7" class="node">
<title>B+C+FIN+S</title>
<ellipse fill="#e5e5e5" stroke="black" cx="623" cy="-105.58" rx="41.4" ry="18"/>
<ellipse fill="none" stroke="black" cx="623" cy="-105.58" rx="45.41" ry="22"/>
<text text-anchor="middle" x="623" y="-103.08" font-family="Arial" font-size="10.00">B+C+FIN+S</text>
</g>
<!-- B+C+FIN+S&#45;&gt;B+C+FIN+S -->
<g id="edge35" class="edge">
<title>B+C+FIN+S&#45;&gt;B+C+FIN+S</title>
<path fill="none" stroke="black" d="M610.87,-126.98C609.55,-136.91 613.59,-145.58 623,-145.58 628.88,-145.58 632.67,-142.19 634.36,-137.23"/>
<polygon fill="black" stroke="black" points="637.87,-137.21 635.13,-126.98 630.89,-136.69 637.87,-137.21"/>
<text text-anchor="middle" x="623" y="-148.58" font-family="Arial" font-size="10.00">b, c</text>
</g>
<!-- B+C+FIN+S&#45;&gt;A+B+C+S -->
<g id="edge34" class="edge">
<title>B+C+FIN+S&#45;&gt;A+B+C+S</title>
<path fill="none" stroke="black" d="M640.16,-126.29C662.39,-154.78 702.33,-205.98 726.19,-236.57"/>
<polygon fill="black" stroke="black" points="723.56,-238.88 732.47,-244.61 729.08,-234.57 723.56,-238.88"/>
<text text-anchor="middle" x="689.21" y="-196.58" font-family="Arial" font-size="10.00">a</text>
</g>
<!-- B+FIN+S -->
<g id="node8" class="node">
<title>B+FIN+S</title>
<ellipse fill="#e5e5e5" stroke="black" cx="387.55" cy="-237.58" rx="33.6" ry="18"/>
<ellipse fill="none" stroke="black" cx="387.55" cy="-237.58" rx="37.61" ry="22"/>
<text text-anchor="middle" x="387.55" y="-235.08" font-family="Arial" font-size="10.00">B+FIN+S</text>
</g>
<!-- B+FIN+S&#45;&gt;B+FIN+S -->
<g id="edge23" class="edge">
<title>B+FIN+S&#45;&gt;B+FIN+S</title>
<path fill="none" stroke="black" d="M376.89,-258.98C375.73,-268.91 379.28,-277.58 387.55,-277.58 392.72,-277.58 396.05,-274.19 397.53,-269.23"/>
<polygon fill="black" stroke="black" points="401.04,-269.19 398.21,-258.98 394.06,-268.72 401.04,-269.19"/>
<text text-anchor="middle" x="387.55" y="-280.58" font-family="Arial" font-size="10.00">b</text>
</g>
<!-- B+FIN+S&#45;&gt;A+B+S -->
<g id="edge21" class="edge">
<title>B+FIN+S&#45;&gt;A+B+S</title>
<path fill="none" stroke="black" d="M407.36,-256.33C419.44,-268.51 435.39,-284.8 449.11,-299.58 457.72,-308.86 466.99,-319.29 474.93,-328.36"/>
<polygon fill="black" stroke="black" points="472.31,-330.68 481.52,-335.92 477.59,-326.08 472.31,-330.68"/>
<text text-anchor="middle" x="446.11" y="-302.58" font-family="Arial" font-size="10.00">a</text>
</g>
<!-- B+C+S -->
<g id="node16" class="node">
<title>B+C+S</title>
<ellipse fill="#e5e5e5" stroke="black" cx="495.95" cy="-56.58" rx="28.69" ry="18"/>
<text text-anchor="middle" x="495.95" y="-54.08" font-family="Arial" font-size="10.00">B+C+S</text>
</g>
<!-- B+FIN+S&#45;&gt;B+C+S -->
<g id="edge22" class="edge">
<title>B+FIN+S&#45;&gt;B+C+S</title>
<path fill="none" stroke="black" d="M409.61,-219.28C415.06,-213.92 420.65,-207.81 425.11,-201.58 452.13,-163.81 473.5,-113.96 485.18,-83.64"/>
<polygon fill="black" stroke="black" points="488.5,-84.74 488.76,-74.15 481.95,-82.27 488.5,-84.74"/>
<text text-anchor="middle" x="446.11" y="-175.58" font-family="Arial" font-size="10.00">c</text>
</g>
<!-- C+FIN+S -->
<g id="node9" class="node">
<title>C+FIN+S</title>
<ellipse fill="#e5e5e5" stroke="black" cx="387.55" cy="-52.58" rx="33.6" ry="18"/>
<ellipse fill="none" stroke="black" cx="387.55" cy="-52.58" rx="37.61" ry="22"/>
<text text-anchor="middle" x="387.55" y="-50.08" font-family="Arial" font-size="10.00">C+FIN+S</text>
</g>
<!-- C+FIN+S&#45;&gt;C+FIN+S -->
<g id="edge28" class="edge">
<title>C+FIN+S&#45;&gt;C+FIN+S</title>
<path fill="none" stroke="black" d="M376.89,-73.98C375.73,-83.91 379.28,-92.58 387.55,-92.58 392.72,-92.58 396.05,-89.19 397.53,-84.23"/>
<polygon fill="black" stroke="black" points="401.04,-84.19 398.21,-73.98 394.06,-83.72 401.04,-84.19"/>
<text text-anchor="middle" x="387.55" y="-95.58" font-family="Arial" font-size="10.00">c</text>
</g>
<!-- C+FIN+S&#45;&gt;A+C+S -->
<g id="edge26" class="edge">
<title>C+FIN+S&#45;&gt;A+C+S</title>
<path fill="none" stroke="black" d="M403.78,-72.81C416.53,-90.12 434.87,-115.93 449.11,-139.58 461.36,-159.93 473.6,-183.92 482.34,-201.87"/>
<polygon fill="black" stroke="black" points="479.32,-203.66 486.82,-211.15 485.63,-200.62 479.32,-203.66"/>
<text text-anchor="middle" x="446.11" y="-142.58" font-family="Arial" font-size="10.00">a</text>
</g>
<!-- C+FIN+S&#45;&gt;B+C+S -->
<g id="edge27" class="edge">
<title>C+FIN+S&#45;&gt;B+C+S</title>
<path fill="none" stroke="black" d="M425.17,-53.96C435.45,-54.34 446.65,-54.76 457,-55.15"/>
<polygon fill="black" stroke="black" points="456.89,-58.65 467.01,-55.53 457.15,-51.65 456.89,-58.65"/>
<text text-anchor="middle" x="446.11" y="-58.58" font-family="Arial" font-size="10.00">b</text>
</g>
<!-- A+S -->
<g id="node11" class="node">
<title>A+S</title>
<ellipse fill="#e5e5e5" stroke="black" cx="281" cy="-392.58" rx="27" ry="18"/>
<text text-anchor="middle" x="281" y="-390.08" font-family="Arial" font-size="10.00">A+S</text>
</g>
<!-- S&#45;&gt;A+S -->
<g id="edge2" class="edge">
<title>S&#45;&gt;A+S</title>
<path fill="none" stroke="black" d="M196.06,-254.17C212.53,-281.32 245.34,-335.42 264.7,-367.35"/>
<polygon fill="black" stroke="black" points="261.83,-369.37 270.01,-376.11 267.82,-365.74 261.83,-369.37"/>
<text text-anchor="middle" x="233" y="-323.58" font-family="Arial" font-size="10.00">a</text>
</g>
<!-- B+S -->
<g id="node12" class="node">
<title>B+S</title>
<ellipse fill="#e5e5e5" stroke="black" cx="281" cy="-237.58" rx="27" ry="18"/>
<text text-anchor="middle" x="281" y="-235.08" font-family="Arial" font-size="10.00">B+S</text>
</g>
<!-- S&#45;&gt;B+S -->
<g id="edge3" class="edge">
<title>S&#45;&gt;B+S</title>
<path fill="none" stroke="black" d="M212.18,-237.58C221.96,-237.58 233.25,-237.58 243.77,-237.58"/>
<polygon fill="black" stroke="black" points="243.96,-241.08 253.96,-237.58 243.96,-234.08 243.96,-241.08"/>
<text text-anchor="middle" x="233" y="-240.58" font-family="Arial" font-size="10.00">b</text>
</g>
<!-- C+S -->
<g id="node13" class="node">
<title>C+S</title>
<ellipse fill="#e5e5e5" stroke="black" cx="281" cy="-141.58" rx="27" ry="18"/>
<text text-anchor="middle" x="281" y="-139.08" font-family="Arial" font-size="10.00">C+S</text>
</g>
<!-- S&#45;&gt;C+S -->
<g id="edge4" class="edge">
<title>S&#45;&gt;C+S</title>
<path fill="none" stroke="black" d="M200.69,-222.58C216.14,-206.8 240.62,-181.79 258.3,-163.74"/>
<polygon fill="black" stroke="black" points="260.92,-166.07 265.42,-156.47 255.92,-161.17 260.92,-166.07"/>
<text text-anchor="middle" x="233" y="-195.58" font-family="Arial" font-size="10.00">c</text>
</g>
<!-- A+S&#45;&gt;A+FIN+S -->
<g id="edge7" class="edge">
<title>A+S&#45;&gt;A+FIN+S</title>
<path fill="none" stroke="black" d="M305.99,-399.46C317.23,-402.69 330.97,-406.63 343.9,-410.34"/>
<polygon fill="black" stroke="black" points="342.99,-413.72 353.57,-413.11 344.92,-406.99 342.99,-413.72"/>
<text text-anchor="middle" x="329" y="-410.58" font-family="Arial" font-size="10.00">a</text>
</g>
<!-- A+S&#45;&gt;A+B+S -->
<g id="edge5" class="edge">
<title>A+S&#45;&gt;A+B+S</title>
<path fill="none" stroke="black" d="M289.24,-410.06C299.28,-431.69 319.67,-467.48 350,-482.58 379.88,-497.45 396.48,-499.75 425.11,-482.58 462.24,-460.3 480.71,-410.84 489.03,-379.47"/>
<polygon fill="black" stroke="black" points="492.47,-380.14 491.47,-369.59 485.67,-378.46 492.47,-380.14"/>
<text text-anchor="middle" x="387.55" y="-498.58" font-family="Arial" font-size="10.00">b</text>
</g>
<!-- A+S&#45;&gt;A+C+S -->
<g id="edge6" class="edge">
<title>A+S&#45;&gt;A+C+S</title>
<path fill="none" stroke="black" d="M307.64,-389.16C338.03,-384.09 389.08,-372.25 425.11,-346.58 456.39,-324.28 475.99,-283.2 486.2,-255.88"/>
<polygon fill="black" stroke="black" points="489.61,-256.75 489.66,-246.15 483.01,-254.4 489.61,-256.75"/>
<text text-anchor="middle" x="387.55" y="-382.58" font-family="Arial" font-size="10.00">c</text>
</g>
<!-- B+S&#45;&gt;B+FIN+S -->
<g id="edge10" class="edge">
<title>B+S&#45;&gt;B+FIN+S</title>
<path fill="none" stroke="black" d="M308.11,-237.58C317.65,-237.58 328.75,-237.58 339.54,-237.58"/>
<polygon fill="black" stroke="black" points="339.74,-241.08 349.74,-237.58 339.74,-234.08 339.74,-241.08"/>
<text text-anchor="middle" x="329" y="-240.58" font-family="Arial" font-size="10.00">b</text>
</g>
<!-- B+S&#45;&gt;A+B+S -->
<g id="edge8" class="edge">
<title>B+S&#45;&gt;A+B+S</title>
<path fill="none" stroke="black" d="M295.88,-252.63C308.82,-265.94 329.2,-285.12 350,-297.58 384.77,-318.41 428.93,-333.45 459.32,-342.28"/>
<polygon fill="black" stroke="black" points="458.49,-345.69 469.06,-345.04 460.39,-338.95 458.49,-345.69"/>
<text text-anchor="middle" x="387.55" y="-334.58" font-family="Arial" font-size="10.00">a</text>
</g>
<!-- B+S&#45;&gt;B+C+S -->
<g id="edge9" class="edge">
<title>B+S&#45;&gt;B+C+S</title>
<path fill="none" stroke="black" d="M291.17,-220.53C302.47,-201.17 323.46,-170 350,-152.58 388.16,-127.52 412.09,-152.3 449.11,-125.58 464.03,-114.81 475.49,-97.56 483.22,-83.01"/>
<polygon fill="black" stroke="black" points="486.42,-84.44 487.76,-73.93 480.16,-81.31 486.42,-84.44"/>
<text text-anchor="middle" x="387.55" y="-155.58" font-family="Arial" font-size="10.00">c</text>
</g>
<!-- C+S&#45;&gt;C+FIN+S -->
<g id="edge13" class="edge">
<title>C+S&#45;&gt;C+FIN+S</title>
<path fill="none" stroke="black" d="M298.34,-127.67C314.12,-114.24 338.36,-93.6 357.45,-77.36"/>
<polygon fill="black" stroke="black" points="359.92,-79.84 365.27,-70.7 355.39,-74.51 359.92,-79.84"/>
<text text-anchor="middle" x="329" y="-105.58" font-family="Arial" font-size="10.00">c</text>
</g>
<!-- C+S&#45;&gt;A+C+S -->
<g id="edge11" class="edge">
<title>C+S&#45;&gt;A+C+S</title>
<path fill="none" stroke="black" d="M305.28,-149.71C333.79,-159.82 383.42,-177.9 425.11,-195.58 437.87,-200.99 451.71,-207.41 463.68,-213.15"/>
<polygon fill="black" stroke="black" points="462.3,-216.36 472.83,-217.56 465.35,-210.06 462.3,-216.36"/>
<text text-anchor="middle" x="387.55" y="-198.58" font-family="Arial" font-size="10.00">a</text>
</g>
<!-- C+S&#45;&gt;B+C+S -->
<g id="edge12" class="edge">
<title>C+S&#45;&gt;B+C+S</title>
<path fill="none" stroke="black" d="M285.23,-123.58C291.64,-93.89 309.05,-35.46 350,-10.58 378.53,6.76 393.13,-0.99 425.11,-10.58 441.72,-15.56 458.03,-25.9 470.71,-35.52"/>
<polygon fill="black" stroke="black" points="468.86,-38.52 478.87,-41.99 473.21,-33.04 468.86,-38.52"/>
<text text-anchor="middle" x="387.55" y="-13.58" font-family="Arial" font-size="10.00">b</text>
</g>
<!-- A+B+S&#45;&gt;A+B+FIN+S -->
<g id="edge18" class="edge">
<title>A+B+S&#45;&gt;A+B+FIN+S</title>
<path fill="none" stroke="black" d="M523.17,-357.87C537.28,-361.25 555.18,-365.55 571.85,-369.55"/>
<polygon fill="black" stroke="black" points="571.49,-373.06 582.03,-371.99 573.12,-366.25 571.49,-373.06"/>
<text text-anchor="middle" x="551.3" y="-369.58" font-family="Arial" font-size="10.00">a, b</text>
</g>
<!-- A+B+S&#45;&gt;A+B+C+S -->
<g id="edge17" class="edge">
<title>A+B+S&#45;&gt;A+B+C+S</title>
<path fill="none" stroke="black" d="M521.26,-342.79C564.56,-327.12 655.35,-294.27 707.22,-275.5"/>
<polygon fill="black" stroke="black" points="708.52,-278.75 716.73,-272.06 706.14,-272.17 708.52,-278.75"/>
<text text-anchor="middle" x="623" y="-324.58" font-family="Arial" font-size="10.00">c</text>
</g>
<!-- A+C+S&#45;&gt;A+C+FIN+S -->
<g id="edge20" class="edge">
<title>A+C+S&#45;&gt;A+C+FIN+S</title>
<path fill="none" stroke="black" d="M522.86,-221.95C537.22,-218.28 555.54,-213.59 572.52,-209.24"/>
<polygon fill="black" stroke="black" points="573.51,-212.6 582.33,-206.73 571.77,-205.82 573.51,-212.6"/>
<text text-anchor="middle" x="551.3" y="-219.58" font-family="Arial" font-size="10.00">a, c</text>
</g>
<!-- A+C+S&#45;&gt;A+B+C+S -->
<g id="edge19" class="edge">
<title>A+C+S&#45;&gt;A+B+C+S</title>
<path fill="none" stroke="black" d="M520.14,-238.72C536.04,-245.14 557.78,-252.9 577.8,-256.58 618.74,-264.1 666.22,-264.79 700.23,-263.92"/>
<polygon fill="black" stroke="black" points="700.44,-267.42 710.33,-263.61 700.22,-260.42 700.44,-267.42"/>
<text text-anchor="middle" x="623" y="-267.58" font-family="Arial" font-size="10.00">b</text>
</g>
<!-- B+C+S&#45;&gt;B+C+FIN+S -->
<g id="edge25" class="edge">
<title>B+C+S&#45;&gt;B+C+FIN+S</title>
<path fill="none" stroke="black" d="M520.77,-65.91C536.77,-72.18 558.35,-80.64 577.48,-88.13"/>
<polygon fill="black" stroke="black" points="576.34,-91.44 586.93,-91.83 578.89,-84.93 576.34,-91.44"/>
<text text-anchor="middle" x="551.3" y="-84.58" font-family="Arial" font-size="10.00">b, c</text>
</g>
<!-- B+C+S&#45;&gt;A+B+C+S -->
<g id="edge24" class="edge">
<title>B+C+S&#45;&gt;A+B+C+S</title>
<path fill="none" stroke="black" d="M522.64,-49.64C558.76,-41.51 624.96,-32.75 668.21,-63.58 723.75,-103.17 739.49,-188.75 743.95,-233.31"/>
<polygon fill="black" stroke="black" points="740.47,-233.8 744.83,-243.45 747.45,-233.18 740.47,-233.8"/>
<text text-anchor="middle" x="623" y="-66.58" font-family="Arial" font-size="10.00">a</text>
</g>
<!-- A+B+C+S&#45;&gt;A+B+C+FIN+S -->
<g id="edge31" class="edge">
<title>A+B+C+S&#45;&gt;A+B+C+FIN+S</title>
<path fill="none" stroke="black" d="M783.58,-261.58C799.51,-261.58 818.73,-261.58 836.88,-261.58"/>
<polygon fill="black" stroke="black" points="837.12,-265.08 847.12,-261.58 837.12,-258.08 837.12,-265.08"/>
<text text-anchor="middle" x="815.2" y="-264.58" font-family="Arial" font-size="10.00">a, b, c</text>
</g>
</g>
</svg>
