<?xml version="1.0" encoding="UTF-8" standalone="no"?>
<!DOCTYPE svg PUBLIC "-//W3C//DTD SVG 1.1//EN"
 "http://www.w3.org/Graphics/SVG/1.1/DTD/svg11.dtd">
<!-- Generated by graphviz version 2.49.3 (20211023.0002)
 -->
<!-- Title: finite_state_machine Pages: 1 -->
<svg width="577pt" height="122pt"
 viewBox="0.00 0.00 577.00 122.00" xmlns="http://www.w3.org/2000/svg" xmlns:xlink="http://www.w3.org/1999/xlink">
<g id="graph0" class="graph" transform="scale(1 1) rotate(0) translate(4 118)">
<title>finite_state_machine</title>
<polygon fill="white" stroke="transparent" points="-4,4 -4,-118 573,-118 573,4 -4,4"/>
<!-- nfa: -->
<g id="node1" class="node">
<title>nfa:</title>
<text text-anchor="middle" x="27" y="-14.9" font-family="Arial" font-size="12.00">nfa:</text>
</g>
<!-- START -->
<g id="node2" class="node">
<title>START</title>
<ellipse fill="#e5e5e5" stroke="black" cx="27" cy="-56" rx="1.8" ry="1.8"/>
</g>
<!-- S -->
<g id="node4" class="node">
<title>S</title>
<ellipse fill="#e5e5e5" stroke="black" cx="122" cy="-56" rx="27" ry="18"/>
<ellipse fill="none" stroke="black" cx="122" cy="-56" rx="31" ry="22"/>
<text text-anchor="middle" x="122" y="-53.5" font-family="Arial" font-size="10.00">S</text>
</g>
<!-- START&#45;&gt;S -->
<g id="edge1" class="edge">
<title>START&#45;&gt;S</title>
<path fill="none" stroke="black" d="M29.04,-56C34.31,-56 58.53,-56 80.79,-56"/>
<polygon fill="black" stroke="black" points="80.81,-59.5 90.81,-56 80.81,-52.5 80.81,-59.5"/>
</g>
<!-- FIN -->
<g id="node3" class="node">
<title>FIN</title>
<ellipse fill="#e5e5e5" stroke="black" cx="538" cy="-92" rx="27" ry="18"/>
<ellipse fill="none" stroke="black" cx="538" cy="-92" rx="31" ry="22"/>
<text text-anchor="middle" x="538" y="-89.5" font-family="Arial" font-size="10.00">FIN</text>
</g>
<!-- A -->
<g id="node5" class="node">
<title>A</title>
<ellipse fill="#e5e5e5" stroke="black" cx="213" cy="-56" rx="18" ry="18"/>
<text text-anchor="middle" x="213" y="-53.5" font-family="Arial" font-size="10.00">A</text>
</g>
<!-- S&#45;&gt;A -->
<g id="edge2" class="edge">
<title>S&#45;&gt;A</title>
<path fill="none" stroke="black" d="M153.13,-56C163.35,-56 174.71,-56 184.7,-56"/>
<polygon fill="black" stroke="black" points="184.88,-59.5 194.88,-56 184.88,-52.5 184.88,-59.5"/>
<text text-anchor="middle" x="174" y="-59" font-family="Arial" font-size="10.00">a</text>
</g>
<!-- A&#45;&gt;A -->
<g id="edge3" class="edge">
<title>A&#45;&gt;A</title>
<path fill="none" stroke="black" d="M206.27,-73.04C204.89,-82.86 207.14,-92 213,-92 216.66,-92 218.92,-88.43 219.75,-83.35"/>
<polygon fill="black" stroke="black" points="223.25,-83.03 219.73,-73.04 216.25,-83.04 223.25,-83.03"/>
<text text-anchor="middle" x="213" y="-95" font-family="Arial" font-size="10.00">a</text>
</g>
<!-- B -->
<g id="node6" class="node">
<title>B</title>
<ellipse fill="#e5e5e5" stroke="black" cx="291" cy="-87" rx="18" ry="18"/>
<text text-anchor="middle" x="291" y="-84.5" font-family="Arial" font-size="10.00">B</text>
</g>
<!-- A&#45;&gt;B -->
<g id="edge4" class="edge">
<title>A&#45;&gt;B</title>
<path fill="none" stroke="black" d="M230.12,-62.57C240.16,-66.67 253.3,-72.03 264.71,-76.68"/>
<polygon fill="black" stroke="black" points="263.58,-80.01 274.17,-80.54 266.23,-73.52 263.58,-80.01"/>
<text text-anchor="middle" x="252" y="-75" font-family="Arial" font-size="10.00">a</text>
</g>
<!-- B&#45;&gt;FIN -->
<g id="edge6" class="edge">
<title>B&#45;&gt;FIN</title>
<path fill="none" stroke="black" d="M308.71,-90.24C320.48,-92.35 336.64,-94.91 351,-96 401.19,-99.81 459.21,-97.5 496.92,-95.11"/>
<polygon fill="black" stroke="black" points="497.25,-98.59 506.99,-94.43 496.78,-91.61 497.25,-98.59"/>
<text text-anchor="middle" x="408" y="-101" font-family="Arial" font-size="10.00">b</text>
</g>
<!-- C -->
<g id="node7" class="node">
<title>C</title>
<ellipse fill="#e5e5e5" stroke="black" cx="369" cy="-40" rx="18" ry="18"/>
<text text-anchor="middle" x="369" y="-37.5" font-family="Arial" font-size="10.00">C</text>
</g>
<!-- B&#45;&gt;C -->
<g id="edge5" class="edge">
<title>B&#45;&gt;C</title>
<path fill="none" stroke="black" d="M306.65,-77.94C317.48,-71.24 332.44,-61.99 344.88,-54.3"/>
<polygon fill="black" stroke="black" points="346.73,-57.27 353.39,-49.03 343.05,-51.32 346.73,-57.27"/>
<text text-anchor="middle" x="330" y="-68" font-family="Arial" font-size="10.00">a</text>
</g>
<!-- C&#45;&gt;A -->
<g id="edge7" class="edge">
<title>C&#45;&gt;A</title>
<path fill="none" stroke="black" d="M350.83,-41.5C331.79,-43.2 300.18,-46.1 273,-49 262.61,-50.11 251.19,-51.44 241.2,-52.64"/>
<polygon fill="black" stroke="black" points="240.53,-49.19 231.03,-53.87 241.38,-56.14 240.53,-49.19"/>
<text text-anchor="middle" x="291" y="-52" font-family="Arial" font-size="10.00">a</text>
</g>
<!-- C&#45;&gt;C -->
<g id="edge8" class="edge">
<title>C&#45;&gt;C</title>
<path fill="none" stroke="black" d="M362.27,-57.04C360.89,-66.86 363.14,-76 369,-76 372.66,-76 374.92,-72.43 375.75,-67.35"/>
<polygon fill="black" stroke="black" points="379.25,-67.03 375.73,-57.04 372.25,-67.04 379.25,-67.03"/>
<text text-anchor="middle" x="369" y="-79" font-family="Arial" font-size="10.00">c</text>
</g>
<!-- D -->
<g id="node8" class="node">
<title>D</title>
<ellipse fill="#e5e5e5" stroke="black" cx="447" cy="-62" rx="18" ry="18"/>
<text text-anchor="middle" x="447" y="-59.5" font-family="Arial" font-size="10.00">D</text>
</g>
<!-- C&#45;&gt;D -->
<g id="edge9" class="edge">
<title>C&#45;&gt;D</title>
<path fill="none" stroke="black" d="M386.49,-44.77C396.25,-47.6 408.83,-51.24 419.91,-54.45"/>
<polygon fill="black" stroke="black" points="418.96,-57.82 429.54,-57.24 420.91,-51.09 418.96,-57.82"/>
<text text-anchor="middle" x="408" y="-55" font-family="Arial" font-size="10.00">c</text>
</g>
<!-- D&#45;&gt;FIN -->
<g id="edge10" class="edge">
<title>D&#45;&gt;FIN</title>
<path fill="none" stroke="black" d="M464.32,-67.5C474.3,-70.87 487.49,-75.31 499.89,-79.49"/>
<polygon fill="black" stroke="black" points="499,-82.88 509.59,-82.76 501.24,-76.25 499,-82.88"/>
<text text-anchor="middle" x="486" y="-78" font-family="Arial" font-size="10.00">d</text>
</g>
</g>
</svg>
